<?xml version="1.0" standalone="no"?>
<!DOCTYPE svg PUBLIC "-//W3C//DTD SVG 20010904//EN"
 "http://www.w3.org/TR/2001/REC-SVG-20010904/DTD/svg10.dtd">
<svg version="1.0" xmlns="http://www.w3.org/2000/svg"
 width="512.000000pt" height="512.000000pt" viewBox="0 0 512.000000 512.000000"
 preserveAspectRatio="xMidYMid meet">
<metadata>
Created by potrace 1.11, written by Peter Selinger 2001-2013
</metadata>
<g transform="translate(0.000000,512.000000) scale(0.100000,-0.100000)"
fill="#000000" stroke="none">
<path d="M0 2560 l0 -2560 2560 0 2560 0 0 2560 0 2560 -2560 0 -2560 0 0
-2560z m4820 0 l0 -2260 -2260 0 -2260 0 0 2260 0 2260 2260 0 2260 0 0 -2260z"/>
<path d="M1610 3440 l0 -250 325 0 325 0 0 -880 0 -880 300 0 300 0 0 880 0
880 325 0 325 0 0 250 0 250 -950 0 -950 0 0 -250z"/>
</g>
</svg>
